<svg xmlns="http://www.w3.org/2000/svg" width="20.824" height="20.824" viewBox="0 0 20.824 20.824">
  <g id="svgexport-15_9_" data-name="svgexport-15 (9)" transform="translate(38.744 -32.173) rotate(45)">
    <ellipse id="Ellipse_6234" data-name="Ellipse 6234" cx="1.343" cy="1.209" rx="1.343" ry="1.209" transform="translate(8.736 59.564)"/>
    <path id="Path_98936" data-name="Path 98936" d="M19.947,49.806a13.46,13.46,0,0,0-19.735,0,.787.787,0,0,0,1.152,1.074,11.885,11.885,0,0,1,17.431,0,.787.787,0,0,0,1.152-1.074Z" transform="translate(0 0)"/>
    <path id="Path_98937" data-name="Path 98937" d="M87.179,164.536a9.637,9.637,0,0,0-13.953,0,.787.787,0,0,0,1.118,1.109,8.063,8.063,0,0,1,11.717,0,.787.787,0,0,0,1.118-1.109ZM84.028,167.8a5.682,5.682,0,0,0-3.832-1.645h-.058a5.682,5.682,0,0,0-3.832,1.645.787.787,0,0,0,1.108,1.119,4.112,4.112,0,0,1,2.724-1.189H80.2a4.112,4.112,0,0,1,2.724,1.189.787.787,0,0,0,1.108-1.119Z" transform="translate(-70.124 -111.478)"/>
  </g>
</svg>
